<?xml version="1.0" encoding="UTF-8"?>
<svg id="Camada_1" data-name="Camada 1" xmlns="http://www.w3.org/2000/svg" viewBox="0 0 208 208">
  <defs>
    <style>
      .cls-1 {
        fill: #6d4610;
      }
    </style>
  </defs>
  <path class="cls-1" d="M21.97,59.25c-.35-.29-.59-.5-.72-.64-.13-.13-.23-.21-.27-.24-.07-.04-.13,0-.19.11-.12.24-.12.58,0,1.03.12.45.32.78.59,1.01l1.41,1.06c.53.4,1.07.94,1.61,1.63.03.04.05.07.08.11.3-.48.61-.98.92-1.51-1.57-1.11-2.73-1.97-3.44-2.57Z"/>
  <path class="cls-1" d="M22.42,64.98c-1.25-.99-2.14-1.62-2.68-1.89-.25-.12-.5-.19-.76-.21-.25-.01-.44.1-.57.35-.13.26-.17.61-.11,1.04s.21.87.46,1.32c.25.45.56.82.95,1.12.08.05.17.11.28.16.14.07.23.07.27,0,.04-.08,0-.18-.11-.28-.77-.91-1.08-1.52-.92-1.84.05-.1.11-.15.2-.16.09,0,.17,0,.25.05.2.1.99.68,2.35,1.73l.22.17c.27-.34.53-.7.79-1.07-.21-.16-.41-.32-.65-.5Z"/>
  <path class="cls-1" d="M12.43,97.76c-1.04-.58-1.53-1.05-1.5-1.41.01-.11.06-.18.13-.22.08-.04.16-.05.26-.04.16.02.71.17,1.63.44.18-.4.4-.8.65-1.2-1.3-.42-2.24-.66-2.78-.72-.28-.03-.54,0-.78.07-.24.07-.38.25-.41.53-.03.29.06.63.26,1.01.21.38.5.75.89,1.08.39.34.81.58,1.28.72.09.02.2.04.32.05.05,0,.08,0,.11,0,.01-.08.03-.16.04-.25-.03-.02-.05-.05-.1-.06Z"/>
  <path class="cls-1" d="M15.9,91.52c-1.97-.52-3.41-.94-4.32-1.27-.43-.15-.72-.27-.9-.35-.17-.08-.28-.12-.34-.13-.08,0-.13.05-.14.17-.03.27.09.59.36.96s.57.63.9.74l1.69.51c.59.17,1.23.48,1.91.88.28-.47.57-.96.83-1.51h0Z"/>
  <path class="cls-1" d="M14.21,111.73c-.87-.35-1.61-.75-2.23-1.19-.62-.44-.94-.85-.97-1.22-.01-.19.06-.32.22-.41.16-.09.41-.14.74-.17.76-.06,1.62,0,2.57.2.11.02.19.06.3.08,0-.36-.03-.76-.07-1.2-1.21-.41-2.41-.58-3.61-.49-1.29.1-1.91.49-1.85,1.17.04.52.44,1.11,1.19,1.78s1.71,1.28,2.88,1.83v.02s-1.76-.2-1.76-.2c-.31-.04-.61-.05-.9-.03-.76.06-1.12.32-1.08.79.02.28.18.58.46.92.29.33.65.62,1.1.88.45.25.89.41,1.34.47l.32.02c.16-.01.24-.06.23-.14,0-.05-.04-.09-.11-.12-.07-.03-.11-.05-.13-.06-.52-.2-.93-.38-1.22-.55s-.44-.35-.46-.57c-.01-.17.13-.27.42-.29.13-.01.25-.01.34,0,.45.02,1.16.09,2.11.21,0-.66.1-1.23.23-1.7-.02,0-.04-.01-.06-.02Z"/>
  <path class="cls-1" d="M26.04,149.33c-.91.06-1.75.02-2.52-.13s-1.26-.42-1.48-.81c-.1-.19-.04-.35.21-.49.05-.03.16-.07.33-.14l2.36-.88c-.21-.42-.4-.84-.57-1.24l-1.84.68c-.73.26-1.27.49-1.63.69-.73.41-.96.86-.68,1.35.24.42.83.77,1.77,1.07s2.06.47,3.37.53v.02s-.93.33-.93.33c-.6.19-1.06.36-1.39.51-.73.38-.97.8-.71,1.25.14.25.41.47.8.65.39.18.84.29,1.33.33.5.04.98-.02,1.44-.17.11-.03.22-.08.35-.15.1-.06.14-.12.1-.19-.03-.05-.12-.07-.29-.07-.43.06-.85.06-1.28,0s-.69-.18-.79-.37c-.06-.1,0-.2.15-.29.09-.05.37-.15.82-.3l.62-.21c.56-.2,1.07-.37,1.55-.54-.32-.5-.61-.98-.88-1.44-.07,0-.13.01-.19.02Z"/>
  <path class="cls-1" d="M41.79,158.58c-.64.28-1.37.61-2.18,1l-.13-.15c-.66-.8-1.58-1.31-2.75-1.51-1.17-.21-2.4-.13-3.67.22s-2.37.92-3.31,1.69c-1.01.83-1.3,1.51-.86,2.03.38.46,1.14.72,2.26.78,1.13.06,2.18,0,3.15-.16v.02s-1.56.86-1.56.86c-.32.2-.59.38-.79.55-.55.45-.68.84-.41,1.17.19.23.49.4.91.51s.88.14,1.39.1.97-.18,1.4-.39l.29-.19c.11-.09.14-.17.09-.23-.04-.05-.15-.06-.31-.03-.51.14-.93.23-1.28.26-.34.03-.58-.03-.72-.2-.11-.13-.05-.29.17-.48.1-.08.19-.15.27-.2.62-.39,2.62-1.48,6-3.26,1.27-.66,2.28-1.16,3.08-1.53-.33-.36-.68-.64-1.05-.85ZM37.05,160.92c-.62.3-1.38.56-2.3.77-.92.21-1.75.31-2.51.31s-1.25-.15-1.49-.44c-.12-.14-.14-.3-.06-.46.08-.16.25-.35.51-.56.59-.48,1.33-.92,2.22-1.31.89-.39,1.75-.62,2.56-.67.81-.05,1.4.14,1.76.58.28.34.44.75.49,1.23l-1.19.57Z"/>
  <path class="cls-1" d="M55.81,181.21c-.58.5-1.14.85-1.69,1.03-.54.18-1,.15-1.37-.09-.36-.23-.51-.57-.45-1.02.06-.45.26-.94.61-1.48.1-.15.23-.3.34-.46-.45-.17-.87-.35-1.28-.52-.32.33-.61.68-.85,1.05-.42.65-.63,1.23-.62,1.75s.24.93.71,1.24c.63.41,1.46.49,2.51.24,1.05-.24,2.08-.71,3.11-1.39.36-.24.67-.49.97-.75-.42-.14-.82-.28-1.2-.41-.25.28-.51.55-.79.79Z"/>
  <path class="cls-1" d="M90.23,191.53c.13-.43-.27-.89-1.03-1.38-.04.15-.08.31-.13.51-.43,1.59-.75,2.73-.96,3.43-.21.7-.43,1.35-.65,1.96-.17.49-.29.81-.37.95-.08.15-.12.24-.12.28,0,.08.05.13.16.14.26.03.59-.08.97-.35.38-.26.63-.56.75-.9l.52-1.69c.18-.62.49-1.3.94-2.05-.13-.3-.17-.6-.08-.91Z"/>
  <path class="cls-1" d="M105.07,196.76c-.35.45-.75.68-1.19.69-.43,0-.74-.19-.94-.59-.16-.33-.24-.75-.28-1.23-.48.05-.96.08-1.45.09-.02.21-.03.43-.03.64.01.77.17,1.37.46,1.8s.72.64,1.28.63c.75-.01,1.49-.41,2.22-1.2.73-.79,1.33-1.75,1.8-2.89,0-.02.01-.04.02-.06-.35.1-.71.21-1.07.33-.2.74-.48,1.34-.83,1.79Z"/>
  <path class="cls-1" d="M136.52,189.13c.14.57.22,1,.25,1.29.03.3.03.55-.01.74s-.12.44-.25.72c-.18.36-.22.68-.11.93.04.09.09.11.16.08.06-.03.19-.14.38-.34.19-.2.41-.36.67-.46.22-.09.63-.21,1.23-.37.81-.2,1.41-.37,1.77-.53.54-.23,1.03-.55,1.46-.97s.75-.85.96-1.28c.21-.43.26-.78.15-1.04-.05-.12-.12-.17-.21-.13-.04.02-.07.04-.1.09-.03.04-.06.08-.1.11-.62.9-1.48,1.57-2.57,2.03-.32.13-.67.26-1.06.37s-.72.18-1.01.22v-.02c.04-.13.06-.32.06-.55,0-.23-.04-.46-.1-.67l-.89-3.88.61-.26c.38-.16.82-.28,1.31-.35.27-.05.43-.09.49-.12.21-.09.39-.26.55-.52.16-.26.27-.53.34-.79.07-.27.08-.44.05-.53s-.1-.11-.2-.07l-3.47,1.45-.11-.46c-.41.35-.83.71-1.26,1.08l1.01,4.21Z"/>
  <path class="cls-1" d="M153.19,180.57c.21.74.28,1.4.21,1.97-.07.57-.29.97-.67,1.2-.36.23-.73.22-1.11-.03-.38-.24-.74-.64-1.08-1.18-.18-.28-.34-.59-.49-.92-.36.12-.74.19-1.14.25.2.87.51,1.64.93,2.33.41.66.85,1.09,1.32,1.31.47.22.95.18,1.42-.12.63-.39,1.06-1.12,1.29-2.17.23-1.05.25-2.19.06-3.41-.03-.21-.08-.41-.12-.61-.29.27-.58.52-.87.76.08.21.17.41.23.62Z"/>
  <path class="cls-1" d="M187.12,144.5c.17.12.35.25.54.38s.41.28.64.45c.2.14.35.27.43.4.09.13.15.2.19.22.02.01.05,0,.08-.02.03-.02.06-.06.08-.11.06-.13.07-.36.02-.67s-.14-.62-.29-.92c-.15-.3-.33-.51-.55-.64-.59-.32-1.13-.67-1.62-1.08-.09-.07-.19-.16-.28-.24-.25.38-.52.75-.82,1.12.46.32.97.68,1.57,1.1Z"/>
  <path class="cls-1" d="M201.88,132.36c-.25-.84-.66-1.66-1.25-2.46-.41-.55-.83-1-1.28-1.36-.45-.35-1-.69-1.66-1.01-.65-.32-1.62-.74-2.9-1.26.05.03-.19-.07-.73-.3-.86-.35-1.72-.74-2.6-1.17-.33-.16-.71-.36-1.1-.56.02.48.03.96.02,1.46.22.16.45.33.69.53.77.63,1.4,1.27,1.89,1.93s.68,1.19.57,1.59c-.05.18-.16.29-.34.32s-.43,0-.75-.08c-.73-.2-1.52-.54-2.36-1.04-.08.42-.15.83-.23,1.24.9.65,1.86,1.12,2.87,1.39,1.26.34,1.98.17,2.16-.5.13-.49-.02-1.14-.44-1.95-.43-.81-1.1-1.7-2.03-2.68h.04c.89.54,1.67.97,2.33,1.25,1.68.75,2.87,1.31,3.58,1.67.71.36,1.26.71,1.66,1.05.95.83,1.28,1.79.99,2.87-.19.72-.58,1.17-1.18,1.34-.59.17-1.4.12-2.41-.15-.1-.03-.17,0-.19.07-.03.1-.01.26.04.48.05.21.19.43.4.64s.53.38.96.49c.44.12.89.14,1.35.08s.88-.23,1.25-.51c.37-.28.63-.68.76-1.19.17-.62.12-1.35-.12-2.18Z"/>
  <path class="cls-1" d="M192.35,86.43c1.08.22,1.97.65,2.68,1.29.7.64,1.14,1.48,1.3,2.5.12.76.17,1.34.14,1.74h-.02c-.26-.17-.63-.26-1.12-.26h-3.52c.2.43.39.89.59,1.36l2.9.02c.47,0,.85.07,1.12.21.27.13.53.32.77.56.1.11.24.19.44.26.19.07.35.1.47.08.08-.01.11-.05.1-.12s-.08-.2-.21-.41-.22-.46-.27-.77c-.04-.22-.06-.61-.06-1.14,0-.68-.04-1.23-.11-1.66-.22-1.38-.79-2.51-1.71-3.39s-2.04-1.48-3.37-1.8c-1.02-.24-2.06-.33-3.13-.25.1.56.23,1.11.36,1.65.94-.08,1.82-.04,2.65.13Z"/>
  <path class="cls-1" d="M189.07,72.99c.55-.81,1.07-1.31,1.54-1.49.35-.13.66-.14.94-.02.28.12.48.35.6.68.25.66,0,1.34-.74,2.04-.09.07-.12.14-.09.21.02.06.11.12.26.18.28.1.54.16.8.18.26.03.43,0,.52-.05.32-.22.53-.5.64-.86.11-.35.09-.72-.05-1.11-.21-.56-.55-1.04-1.02-1.44-.47-.39-.99-.66-1.56-.79-.57-.13-1.08-.11-1.54.06-.13.76-.24,1.58-.33,2.43l.02-.04Z"/>
  <path class="cls-1" d="M185.28,58.99c.34.08.54.18.62.32.06.11.02.19-.11.26l-.25.09-.42.14c.41.36.78.7,1.13,1.02.35-.11.65-.24.9-.37.54-.29.71-.63.5-1-.16-.29-.5-.53-1.02-.72-.52-.19-1.06-.29-1.63-.31s-.98.04-1.25.19c.12.11.23.2.34.3.48,0,.88.02,1.17.08Z"/>
  <path class="cls-1" d="M171.35,46.34c.64-.53,1.31-.94,2.02-1.25.71-.31,1.35-.46,1.92-.47.57,0,1,.16,1.28.5.27.33.31.7.12,1.11s-.53.81-1.03,1.22c-.51.42-1.13.81-1.84,1.14-.33.16-.66.28-.97.37.19.22.39.44.6.66.29-.05.59-.12.9-.2,1.21-.32,2.23-.82,3.06-1.51.6-.49.97-.99,1.12-1.48.15-.5.05-.96-.31-1.39-.47-.58-1.25-.91-2.32-.99-1.07-.08-2.2.05-3.38.39-.79.23-1.48.53-2.08.89.2.43.42.85.66,1.25.09-.08.17-.16.27-.24Z"/>
  <path class="cls-1" d="M39.29,52.39c.19,1.08-.05,2.04-.71,2.89-.38.48-.78.77-1.19.88-.41.11-.82.05-1.23-.17-.05-.02-.13-.07-.23-.13-.1-.06-.2-.11-.29-.13-.09-.02-.17,0-.23.08-.05.06-.07.13-.07.2,0,.07.02.17.06.3.18.53.42.91.72,1.15.43.34.91.39,1.46.14.54-.24,1.03-.64,1.46-1.18.66-.84,1.05-1.92,1.16-3.25.11-1.33-.15-2.71-.78-4.16-.09-.21-.21-.41-.32-.61-.43.23-.85.47-1.27.7.03.04.07.09.1.13.72,1.02,1.18,2.07,1.37,3.15Z"/>
  <path class="cls-1" d="M30.04,60.53c.54,0,.95-.21,1.23-.64.37-.59.45-1.4.23-2.45-.21-1.01-.64-2.01-1.28-3.02-.24.24-.45.47-.64.7.51.55.89,1.11,1.14,1.68.25.59.25,1.1-.01,1.52-.42.66-1.27.59-2.56-.22-.12-.08-.23-.17-.34-.25-.23.38-.46.76-.68,1.13.37.37.76.69,1.17.95.63.4,1.21.6,1.75.61Z"/>
  <path class="cls-1" d="M15.34,76.14s.04.02.06.03l5.11,2.91c.35.21.68.37,1,.48.54.19.88.11,1.02-.24v-.04c.04-.09.06-.19.07-.3v-.15c.01-.27.07-.52.15-.75l1.11-3.17.55.3c1.18.65,2.15,1.23,2.91,1.74s1.35,1.07,1.79,1.7c.44.63.54,1.27.31,1.94-.07.19-.1.34-.1.46s.05.27.14.44c.15.34.3.53.45.58.06.02.11,0,.13-.06,0-.01.04-.29.12-.83.1-.85.06-1.62-.13-2.3-.19-.68-.7-1.45-1.55-2.3s-2.18-1.8-3.99-2.83l-.2-.09.28-.79c.12-.34.14-.67.07-.98-.07-.32-.21-.58-.42-.79-.09-.12-.18-.19-.28-.23-.11-.04-.19-.02-.22.07-.01.04,0,.16.01.35.02.2-.03.47-.14.81l-.35,1c-1.25-.69-2.95-1.59-5.09-2.71-.45.28-.82.6-1.15.93l5.8,3.04-1.02,2.91c-.11.24-.21.4-.29.48-.08.08-.22.08-.41.02-.13-.04-.29-.12-.49-.23l-4.73-2.61c-.18-.1-.33-.18-.48-.25-.06.48-.07.97-.04,1.47Z"/>
  <path class="cls-1" d="M19.97,88.89c.25-.35.44-.8.56-1.33.23-1.04.07-2.09-.48-3.16-.55-1.06-1.36-1.99-2.42-2.78.58.66.89,1.35,1,2.07.17.15.32.31.47.47.54.6.75,1.19.63,1.75-.09.43-.32.81-.66,1.14l-.84-.42c-.14.39-.31.8-.5,1.21l.86.37c.3.13.76.36,1.39.67Z"/>
  <path class="cls-1" d="M17.24,103.02c.44.47.65.97.65,1.5,0,.44-.21.8-.6,1.09-.07.04-.1.08-.1.14,0,.08.08.17.24.26.28.16.52.25.74.25.23,0,.41-.1.56-.3.14-.2.22-.49.22-.85.01-.83-.35-1.63-1.08-2.42-.73-.79-1.66-1.43-2.77-1.94-.86-.39-1.69-.63-2.5-.73.1.44.25.91.46,1.43.87.01,1.67.16,2.41.44.74.28,1.33.65,1.77,1.12Z"/>
  <path class="cls-1" d="M24.02,135.19c1.24-.14,2.38-.03,3.42.33,1.04.35,1.76,1.03,2.18,2.03.24.57.3,1.06.19,1.47-.11.41-.36.75-.74.99-.04.03-.12.08-.22.14-.11.06-.19.12-.25.19s-.08.15-.04.24c.03.07.08.13.14.16.06.03.16.06.29.1.55.1,1,.08,1.36-.07.5-.21.78-.61.83-1.2.05-.59-.06-1.21-.33-1.85-.41-.98-1.17-1.85-2.28-2.59-1.11-.74-2.44-1.19-4.02-1.33-1.57-.14-3.23.15-4.98.88.31.52.58,1,.84,1.48.06-.03.11-.06.18-.08,1.05-.44,2.19-.72,3.43-.86Z"/>
  <path class="cls-1" d="M38.2,151.46c-.19-.27-.43-.44-.73-.51-.3-.06-.62-.01-.98.15l-1.29.6c-.12.06-.14.15-.06.26l.05.07c.19.27.44.44.75.5.31.06.63,0,.97-.16l1.26-.6c.07-.04.12-.07.13-.1.01-.03,0-.08-.05-.15l-.05-.07Z"/>
  <path class="cls-1" d="M44.64,167.05l-.54.33c-.85,1.54-2.22,2.57-2.87,3.52.56-.4,1.32-.92,2.33-1.58l1.81-1.25c.27-.18.71-.45,1.31-.82-.16-.4-.44-.8-.83-1.18-.32-.31-.68-.56-1.08-.75-.05.45-.16.86-.3,1.24.07.15.13.31.17.48Z"/>
  <path class="cls-1" d="M56.85,170.32c.75-.51,1.42-.83,1.99-.98.75-.17,1.42-.08,2.03.28.05.02.12.06.21.12.09.06.19.1.31.14.11.04.26.05.44.04.33,0,.55-.08.66-.22.07-.08.06-.15-.01-.21-.03-.03-.11-.05-.22-.09-.12-.03-.3-.11-.54-.24-.54-.28-1-.47-1.36-.57-.36-.1-.84-.13-1.42-.08-.88.08-1.77.37-2.65.86-.88.49-2.07,1.32-3.56,2.49l-.16-.12c-.81-.65-1.82-.95-3.01-.91-1.19.04-2.37.37-3.54.98s-2.13,1.4-2.88,2.35c.47.26.9.49,1.32.72.06-.11.14-.22.24-.35.47-.59,1.1-1.18,1.9-1.75s1.58-.97,2.36-1.19c.78-.22,1.4-.16,1.85.2.34.27.59.64.74,1.1l-1.05.8c-.54.42-1.24.83-2.09,1.23-.84.39-1.63.66-2.37.82.3.16.59.32.86.46.42-.12.84-.25,1.23-.4h.02s-.76.66-.76.66c.41.21.79.41,1.17.61.84-.74,2.37-2.04,4.59-3.9,1.71-1.4,2.94-2.36,3.69-2.87Z"/>
  <path class="cls-1" d="M86.96,183.01v-.02c-.4.03-.77,0-1.11-.09-.3-.08-.77-.28-1.43-.59-.71-.33-1.25-.55-1.63-.65-.91-.25-1.78-.22-2.6.07-.82.29-1.43.8-1.83,1.54l-.07.19c-.03.1,0,.17.07.19.08.02.21-.05.39-.23.57-.47,1.12-.77,1.66-.9.54-.13,1.16-.1,1.85.08.41.11.74.22,1,.33.25.11.4.18.45.21.08.05.21.11.38.19v.02c-.61.2-1.19.54-1.75,1.03-.56.49-1.08,1.05-1.56,1.67-.19.25-.41.54-.63.85.38.11.76.21,1.13.32.63-.88,1.19-1.59,1.66-2.09.71-.76,1.35-1.19,1.91-1.29h.02c-.42.68-.85,1.58-1.31,2.71-.16.4-.31.81-.46,1.21.46.14.9.28,1.32.42.32-1.01.65-1.91.99-2.67.52-1.18,1.04-2.01,1.54-2.49Z"/>
  <path class="cls-1" d="M142.84,172.79c.12-.52.51-.99,1.15-1.42.16-.1.29-.2.38-.3.1-.1.18-.25.25-.43.06-.17.1-.31.1-.44,0-.12,0-.21-.03-.25-.05-.09-.12-.12-.2-.08-.02.01-.07.06-.13.14-.06.08-.23.23-.49.44-.56.49-.96.87-1.21,1.13-.25.27-.46.59-.63.96-.29.65-.39,1.5-.28,2.56s.45,2.46,1.04,4.19l.59,1.7c.49.06,1,.17,1.55.36l-1.44-4.23c-.66-1.92-.88-3.37-.65-4.33Z"/>
  <path class="cls-1" d="M170.55,161.52c.27-.31.61-.61,1.01-.9.21-.17.34-.28.39-.33.15-.17.23-.41.26-.71.02-.3,0-.59-.05-.86-.06-.27-.12-.43-.19-.5-.07-.06-.14-.05-.21.03l-2.46,2.85-3.14-3.74c.17-.19.47-.5.91-.93.12-.12.26-.26.42-.42.15-.16.31-.33.47-.51.41-.47.69-.93.83-1.37s.2-.81.17-1.11c-.04-.3-.12-.51-.24-.61-.04-.04-.08-.05-.1-.05-.03,0-.06.02-.09.06-.03.04-.12.24-.26.61-.14.37-.46.84-.96,1.43-.14.16-.58.62-1.33,1.39-.5.48-.91.9-1.21,1.25-.65.76-1.05,1.45-1.2,2.08-.15.63-.09,1.15.17,1.57.03.08.1.16.19.24s.16.09.21.03c.03-.03.04-.16.05-.38s.07-.5.18-.84c.11-.33.38-.74.79-1.23l.05-.06,4.62,5.5c.34-.4.66-.79.97-1.19l-.66-.8.43-.5Z"/>
  <path class="cls-1" d="M180.39,144.19c.04-.08.03-.32-.04-.72-.07-.4-.15-.62-.24-.67-.07-.04-.12-.02-.16.05l-.95,1.71-1.23-.96c-.23-.19-.43-.4-.6-.63-.17-.23-.28-.36-.32-.39-.06-.03-.1-.02-.14.04-.18.31-.2.71-.07,1.2.13.48.37.86.73,1.12l.99.78-.58,1.05c-.06.12-.06.36.01.74s.17.6.28.66c.06.03.1.02.14-.04l.98-1.77,1.72,1.35c.35-.27.71-.56,1.08-.86l-2.14-1.69.54-.98Z"/>
  <path class="cls-1" d="M187.75,132.15c-.48-.6-1.03-1.02-1.67-1.25-.79-.29-1.3-.11-1.54.54-.26.71-.17,1.55.29,2.51.45.96,1.12,1.86,2.02,2.69.5.46,1.01.84,1.52,1.15.25-.87.46-1.77.64-2.72-.05-.27-.09-.55-.17-.82-.24-.8-.6-1.51-1.07-2.11ZM188.37,135.76c-.08.21-.16.35-.23.4-.47-.26-.94-.59-1.4-.99-.46-.4-.82-.83-1.07-1.26s-.31-.83-.19-1.17c.15-.41.52-.51,1.11-.3.5.18.91.47,1.21.87.31.4.51.82.61,1.28.1.46.08.84-.03,1.17Z"/>
  <path class="cls-1" d="M188.73,114.47c-.24.37-.4.82-.48,1.36-.17,1.05.05,2.09.66,3.13.32.54.7,1.03,1.15,1.48-.04-.41-.07-.82-.1-1.21-.03-.03-.06-.05-.09-.08-.58-.57-.82-1.14-.72-1.71.07-.43.27-.83.6-1.18l.24.1c.05-.43.11-.86.22-1.28h-.04c-.31-.13-.78-.33-1.42-.61Z"/>
  <path class="cls-1" d="M186.34,77.91c-.81.23-1.12.67-.93,1.34.2.73.77,1.36,1.7,1.87.56.31,1.18.55,1.85.73-.03-.31-.05-.62-.07-.93-.41-.07-.79-.17-1.12-.32-.46-.21-.74-.49-.84-.84-.12-.42.12-.72.73-.89.39-.11.77-.11,1.14-.05,0-.25,0-.5,0-.75-.12-.04-.23-.09-.35-.12-.74-.21-1.43-.22-2.09-.04Z"/>
  <path class="cls-1" d="M187.37,63.79c-.16.07-.22.14-.19.2.01.02.03.04.07.05.03,0,.06.01.09.01.42.01.77.09,1.06.22s.48.29.57.49c.12.27-.02.49-.42.68-.18.08-.45.17-.8.27-.35.1-.57.16-.66.18l-4.98,1.38-.47-1.02c-.04-.08-.24-.22-.6-.4-.36-.18-.59-.25-.69-.2-.07.03-.09.09-.06.16l.82,1.78-1.5.43c-.29.07-.58.11-.86.11s-.45.01-.5.03c-.06.03-.08.07-.05.13.15.33.46.58.92.76.47.18.91.21,1.33.07l1.21-.34.5,1.09c.06.12.26.26.6.43s.58.22.7.16c.06-.03.08-.07.05-.13l-.84-1.84,5.01-1.4c.08-.02.31-.09.69-.2.38-.11.73-.24,1.05-.38.21-.09.38-.2.53-.31-.04-.79-.27-1.49-.79-2.28-.25-.1-.51-.19-.79-.23-.42-.06-.76-.04-1,.07Z"/>
  <path class="cls-1" d="M173.97,53.49c-.66.44-.83.89-.52,1.35.3.44.92.79,1.86,1.05.95.25,2.04.34,3.28.25v.02c-1.17.53-1.95.92-2.32,1.16-.23.15-.4.32-.51.5-.1.18-.1.36.02.54.18.27.54.46,1.07.58.54.12,1.09.17,1.67.14.57-.03.97-.12,1.19-.26.11-.07.14-.15.08-.24-.02-.03-.06-.05-.11-.06-.05,0-.13,0-.23,0-.1,0-.22.01-.36.02-.92.07-1.44,0-1.56-.19-.04-.07,0-.15.15-.24.17-.11.48-.27.95-.49.97-.46,1.82-.85,2.58-1.19-.45-.38-.89-.74-1.31-1.09-.25.05-.49.11-.77.16-.87.13-1.66.15-2.38.05-.72-.09-1.19-.31-1.42-.65-.1-.14-.12-.26-.06-.36s.19-.2.4-.32c.36-.22.98-.51,1.83-.87-.39-.33-.77-.65-1.13-.97l-1.07.45c-.64.28-1.09.51-1.33.67Z"/>
  <path class="cls-1" d="M98.67,195.72c-.27.46-.52.83-.74,1.11-.22.28-.44.4-.67.37-.2-.02-.28-.15-.25-.39.02-.14.14-.58.36-1.31-.45-.06-.9-.13-1.33-.22-.3.96-.48,1.65-.53,2.05-.09.71.11,1.1.59,1.16.29.04.63-.05,1.02-.25s.75-.5,1.08-.88.58-.81.73-1.27c.02-.09.04-.2.06-.32,0-.05,0-.08,0-.11-.09,0-.17-.01-.26-.02-.02.02-.03.04-.05.07Z"/>
  <path class="cls-1" d="M92.27,194.36c-.53,1.7-.88,2.8-1.06,3.31-.02.16.06.25.25.27.17.02.41-.03.71-.16.3-.12.47-.27.5-.42l.88-2.74c-.44-.15-.85-.32-1.22-.5-.03.08-.05.15-.07.24Z"/>
  <path class="cls-1" d="M97.85,194.01l.74-2.33c.2-.67.32-1.15.35-1.43.1-.79-.14-1.22-.69-1.29-.48-.06-1.05.15-1.72.62-.67.47-1.36,1.19-2.08,2.17h-.04s.17-.55.17-.55c.2-.66.32-1.18.37-1.55.05-.38.02-.67-.08-.85-.1-.18-.28-.29-.55-.32-.56-.07-1.18.15-1.86.66-.69.51-1.42,1.3-2.21,2.38h-.02c-.09.31-.05.61.08.91,0,0,0,0,0,0,.44-.75.92-1.37,1.43-1.86s.94-.72,1.3-.68c.13.02.21.07.24.15.03.08.04.2.02.34l-.02.2c-.14.77-.46,1.96-.94,3.54.37.18.78.35,1.22.5l.11-.35c.25-.62.58-1.23.99-1.86.41-.62.83-1.13,1.26-1.52s.8-.57,1.1-.53c.16.02.25.08.28.19.03.11.03.28,0,.5-.08.49-.24,1.09-.47,1.8-.23.71-.37,1.16-.43,1.36-.13.39-.25.74-.35,1.07.43.08.88.16,1.33.22.13-.41.28-.9.48-1.5Z"/>
</svg>